<?xml version="1.0" standalone="no"?>
<svg xmlns="http://www.w3.org/2000/svg" xmlns:xlink="http://www.w3.org/1999/xlink" width="1064pt" height="350pt" viewBox="0.00 0.00 1064.08 350.32">
<g id="graph0" class="graph" transform="translate(4,346.32000732421875) scale(1)" data-name="client_fsm">

<polygon fill="white" stroke="none" points="-4,4 -4,-346.32 1060.08,-346.32 1060.08,4 -4,4"/>
<text text-anchor="middle" x="528.04" y="-325.72" font-family="Consolas" font-size="14.00">Client FSM (Mealy machine)</text>
<!-- s -->
<!-- start -->
<g id="node2" class="node" pointer-events="visible" data-name="start">

<ellipse fill="none" stroke="black" cx="100.66" cy="-27.66" rx="27.83" ry="27.83"/>
<text text-anchor="middle" x="100.66" y="-23.46" font-family="Times,serif" font-size="14.00">start</text>
</g>
<!-- s&#45;&gt;start -->
<g id="edge1" class="edge" data-name="s-&gt;start">

<path fill="none" stroke="black" d="M36.11,-27.66C43.44,-27.66 52.32,-27.66 61.1,-27.66"/>
<polygon fill="black" stroke="black" points="60.91,-31.16 70.91,-27.66 60.91,-24.16 60.91,-31.16"/>
</g>
<!-- auth -->
<g id="node4" class="node" pointer-events="visible" data-name="auth">

<ellipse fill="none" stroke="black" cx="252.26" cy="-75.66" rx="27.83" ry="27.83"/>
<text text-anchor="middle" x="252.26" y="-71.46" font-family="Times,serif" font-size="14.00">auth</text>
</g>
<!-- start&#45;&gt;auth -->
<g id="edge2" class="edge" data-name="start-&gt;auth">

<path fill="none" stroke="black" d="M127.72,-36.02C151.67,-43.71 187.44,-55.18 214.33,-63.81"/>
<polygon fill="black" stroke="black" points="213.22,-67.13 223.81,-66.85 215.36,-60.47 213.22,-67.13"/>
<text text-anchor="start" x="146.33" y="-65.86" font-family="Times,serif" font-size="14.00"> </text>
<text text-anchor="start" x="149.83" y="-65.86" font-family="Times,serif" font-size="14.00" fill="red">_</text>
<text text-anchor="start" x="156.83" y="-65.86" font-family="Times,serif" font-size="14.00">  /</text>
<text text-anchor="start" x="167.71" y="-65.86" font-family="Times,serif" font-size="14.00" fill="blue">AUTH</text>
</g>
<!-- open -->
<g id="node3" class="node" pointer-events="visible" data-name="open">

<ellipse fill="none" stroke="black" cx="449.71" cy="-173.66" rx="29.62" ry="29.62"/>
<text text-anchor="middle" x="449.71" y="-169.46" font-family="Times,serif" font-size="14.00">open</text>
</g>
<!-- open&#45;&gt;open -->
<g id="edge9" class="edge" data-name="open-&gt;open">

<path fill="none" stroke="black" d="M430.29,-196.6C423.03,-214.36 429.5,-232.47 449.71,-232.47 465.65,-232.47 473.05,-221.19 471.89,-207.71"/>
<polygon fill="black" stroke="black" points="475.3,-206.93 469.49,-198.07 468.51,-208.62 475.3,-206.93"/>
<text text-anchor="start" x="397.59" y="-248.87" font-family="Times,serif" font-size="14.00">        </text>
<text text-anchor="start" x="425.59" y="-248.87" font-family="Times,serif" font-size="14.00" fill="red">MSG</text>
<text text-anchor="start" x="455.94" y="-248.87" font-family="Times,serif" font-size="14.00">  /</text>
<text text-anchor="start" x="466.83" y="-248.87" font-family="Times,serif" font-size="14.00" fill="blue">_</text>
<text text-anchor="start" x="473.83" y="-248.87" font-family="Times,serif" font-size="14.00">        </text>
<text text-anchor="start" x="418.59" y="-234.87" font-family="Times,serif" font-size="14.00" fill="red">_</text>
<text text-anchor="start" x="425.59" y="-234.87" font-family="Times,serif" font-size="14.00">  /</text>
<text text-anchor="start" x="436.48" y="-234.87" font-family="Times,serif" font-size="14.00" fill="blue">MSG</text>
<text text-anchor="start" x="466.83" y="-234.87" font-family="Times,serif" font-size="14.00">    </text>
</g><g id="edge8" class="edge" data-name="start-&gt;end" data-comment="open-&gt;open">

<path fill="none" stroke="black" d="M127.94,-20.85C157.66,-13.75 207.6,-3.66 251.26,-3.66 251.26,-3.66 251.26,-3.66 758.94,-3.66 849.27,-3.66 945.08,-57.39 993.71,-89.05"/>
<polygon fill="black" stroke="black" points="991.54,-91.81 1001.8,-94.42 995.4,-85.98 991.54,-91.81"/>
<text text-anchor="start" x="381.65" y="-20.06" font-family="Times,serif" font-size="14.00">        </text>
<text text-anchor="start" x="409.65" y="-20.06" font-family="Times,serif" font-size="14.00" fill="red">ERR, BYE</text>
<text text-anchor="start" x="471.88" y="-20.06" font-family="Times,serif" font-size="14.00">  /</text>
<text text-anchor="start" x="482.77" y="-20.06" font-family="Times,serif" font-size="14.00" fill="blue">_</text>
<text text-anchor="start" x="489.77" y="-20.06" font-family="Times,serif" font-size="14.00">        </text>
<text text-anchor="start" x="419.76" y="-6.06" font-family="Times,serif" font-size="14.00" fill="red">_</text>
<text text-anchor="start" x="426.76" y="-6.06" font-family="Times,serif" font-size="14.00">  /</text>
<text text-anchor="start" x="437.65" y="-6.06" font-family="Times,serif" font-size="14.00" fill="blue">BYE</text>
<text text-anchor="start" x="465.65" y="-6.06" font-family="Times,serif" font-size="14.00">    </text>
</g>
<!-- join -->
<g id="node5" class="node" pointer-events="visible" data-name="join">

<ellipse fill="none" stroke="black" cx="757.94" cy="-245.66" rx="26.12" ry="26.12"/>
<text text-anchor="middle" x="757.94" y="-241.46" font-family="Times,serif" font-size="14.00">join</text>
</g>
<!-- open&#45;&gt;join -->
<g id="edge10" class="edge" data-name="open-&gt;join">

<path fill="none" stroke="black" d="M475.5,-188.58C492.01,-197.84 514.51,-209.16 535.77,-215.66 598.73,-234.92 675.56,-241.83 720.1,-244.3"/>
<polygon fill="black" stroke="black" points="719.83,-247.79 729.99,-244.8 720.18,-240.8 719.83,-247.79"/>
<text text-anchor="start" x="577.97" y="-244.86" font-family="Times,serif" font-size="14.00"> </text>
<text text-anchor="start" x="581.47" y="-244.86" font-family="Times,serif" font-size="14.00" fill="red">_</text>
<text text-anchor="start" x="588.47" y="-244.86" font-family="Times,serif" font-size="14.00">  /</text>
<text text-anchor="start" x="599.36" y="-244.86" font-family="Times,serif" font-size="14.00" fill="blue">JOIN</text>
</g>
<!-- end -->
<g id="node6" class="node" pointer-events="visible" data-name="end">

<ellipse fill="none" stroke="black" cx="1027.1" cy="-111.66" rx="24.96" ry="24.96"/>
<ellipse fill="none" stroke="black" cx="1027.1" cy="-111.66" rx="28.96" ry="28.96"/>
<text text-anchor="middle" x="1027.1" y="-107.46" font-family="Times,serif" font-size="14.00">end</text>
</g>
<!-- open&#45;&gt;end -->
<g id="edge6" class="edge" data-name="open-&gt;end">

<path fill="none" stroke="black" d="M479.64,-170.55C574.75,-160.3 877.9,-127.63 986.73,-115.9"/>
<polygon fill="black" stroke="black" points="987.06,-119.39 996.63,-114.84 986.31,-112.43 987.06,-119.39"/>
<text text-anchor="start" x="689.89" y="-178.06" font-family="Times,serif" font-size="14.00">        </text>
<text text-anchor="start" x="717.89" y="-178.06" font-family="Times,serif" font-size="14.00" fill="red">ERR, BYE</text>
<text text-anchor="start" x="780.11" y="-178.06" font-family="Times,serif" font-size="14.00">  /</text>
<text text-anchor="start" x="791" y="-178.06" font-family="Times,serif" font-size="14.00" fill="blue">_</text>
<text text-anchor="start" x="798" y="-178.06" font-family="Times,serif" font-size="14.00">        </text>
<text text-anchor="start" x="699.22" y="-164.06" font-family="Times,serif" font-size="14.00" fill="red">*REPLY</text>
<text text-anchor="start" x="750.55" y="-164.06" font-family="Times,serif" font-size="14.00">  /</text>
<text text-anchor="start" x="761.44" y="-164.06" font-family="Times,serif" font-size="14.00" fill="blue">ERR</text>
<text text-anchor="start" x="788.67" y="-164.06" font-family="Times,serif" font-size="14.00">        </text>
<text text-anchor="start" x="728" y="-150.06" font-family="Times,serif" font-size="14.00" fill="red">_</text>
<text text-anchor="start" x="735" y="-150.06" font-family="Times,serif" font-size="14.00">  /</text>
<text text-anchor="start" x="745.89" y="-150.06" font-family="Times,serif" font-size="14.00" fill="blue">BYE</text>
<text text-anchor="start" x="773.89" y="-150.06" font-family="Times,serif" font-size="14.00">    </text>
</g>
<!-- auth&#45;&gt;open -->
<g id="edge4" class="edge" data-name="auth-&gt;open">

<path fill="none" stroke="black" d="M277.62,-87.88C311.55,-104.89 373.3,-135.85 412.59,-155.55"/>
<polygon fill="black" stroke="black" points="410.94,-158.64 421.44,-159.99 414.07,-152.38 410.94,-158.64"/>
<text text-anchor="start" x="297.92" y="-134.86" font-family="Times,serif" font-size="14.00"> </text>
<text text-anchor="start" x="301.42" y="-134.86" font-family="Times,serif" font-size="14.00" fill="red">REPLY</text>
<text text-anchor="start" x="345.76" y="-134.86" font-family="Times,serif" font-size="14.00">  /</text>
<text text-anchor="start" x="356.65" y="-134.86" font-family="Times,serif" font-size="14.00" fill="blue">_</text>
</g>
<!-- auth&#45;&gt;auth -->
<g id="edge3" class="edge" data-name="auth-&gt;auth">

<path fill="none" stroke="black" d="M239.17,-100.71C235.76,-116.82 240.12,-132.33 252.26,-132.33 261.46,-132.33 266.19,-123.42 266.46,-112.1"/>
<polygon fill="black" stroke="black" points="269.95,-111.83 265.5,-102.22 262.98,-112.51 269.95,-111.83"/>
<text text-anchor="start" x="169.9" y="-139.42" font-family="Times,serif" font-size="14.00"> </text>
<text text-anchor="start" x="173.4" y="-139.42" font-family="Times,serif" font-size="14.00" fill="red">!REPLY</text>
<text text-anchor="start" x="222.4" y="-139.42" font-family="Times,serif" font-size="14.00">  /</text>
<text text-anchor="start" x="233.29" y="-139.42" font-family="Times,serif" font-size="14.00" fill="blue">AUTH</text>
<text text-anchor="start" x="272.17" y="-139.42" font-family="Times,serif" font-size="14.00"> </text>
</g>
<!-- auth&#45;&gt;end -->
<g id="edge5" class="edge" data-name="auth-&gt;end">

<path fill="none" stroke="black" d="M280.31,-76.92C396.09,-82.32 850.18,-103.47 986.92,-109.84"/>
<polygon fill="black" stroke="black" points="986.39,-113.32 996.54,-110.29 986.72,-106.32 986.39,-113.32"/>
<text text-anchor="start" x="535.77" y="-125.06" font-family="Times,serif" font-size="14.00">        </text>
<text text-anchor="start" x="563.77" y="-125.06" font-family="Times,serif" font-size="14.00" fill="red">ERR, BYE</text>
<text text-anchor="start" x="626" y="-125.06" font-family="Times,serif" font-size="14.00">  /</text>
<text text-anchor="start" x="636.89" y="-125.06" font-family="Times,serif" font-size="14.00" fill="blue">_</text>
<text text-anchor="start" x="643.89" y="-125.06" font-family="Times,serif" font-size="14.00">        </text>
<text text-anchor="start" x="555.6" y="-111.06" font-family="Times,serif" font-size="14.00" fill="red">MSG</text>
<text text-anchor="start" x="585.94" y="-111.06" font-family="Times,serif" font-size="14.00">  /</text>
<text text-anchor="start" x="596.83" y="-111.06" font-family="Times,serif" font-size="14.00" fill="blue">ERR</text>
<text text-anchor="start" x="624.06" y="-111.06" font-family="Times,serif" font-size="14.00">        </text>
<text text-anchor="start" x="573.88" y="-97.06" font-family="Times,serif" font-size="14.00" fill="red">_</text>
<text text-anchor="start" x="580.88" y="-97.06" font-family="Times,serif" font-size="14.00">  /</text>
<text text-anchor="start" x="591.77" y="-97.06" font-family="Times,serif" font-size="14.00" fill="blue">BYE</text>
<text text-anchor="start" x="619.77" y="-97.06" font-family="Times,serif" font-size="14.00">    </text>
</g>
<!-- join&#45;&gt;open -->
<g id="edge12" class="edge" data-name="join-&gt;open">

<path fill="none" stroke="black" d="M737.39,-229.4C721,-216.77 696.41,-200.07 671.89,-191.86 611.18,-171.54 536.11,-169.93 490.89,-171.3"/>
<polygon fill="black" stroke="black" points="490.88,-167.8 481.02,-171.68 491.15,-174.8 490.88,-167.8"/>
<text text-anchor="start" x="567.46" y="-196.86" font-family="Times,serif" font-size="14.00"> </text>
<text text-anchor="start" x="570.96" y="-196.86" font-family="Times,serif" font-size="14.00" fill="red">*REPLY</text>
<text text-anchor="start" x="622.3" y="-196.86" font-family="Times,serif" font-size="14.00">  /</text>
<text text-anchor="start" x="633.19" y="-196.86" font-family="Times,serif" font-size="14.00" fill="blue">_</text>
</g>
<!-- join&#45;&gt;join -->
<g id="edge11" class="edge" data-name="join-&gt;join">

<path fill="none" stroke="black" d="M736.73,-261.44C721.67,-279.64 728.75,-300.72 757.94,-300.72 782.12,-300.72 791.13,-286.27 784.96,-270.96"/>
<polygon fill="black" stroke="black" points="788.14,-269.45 779.95,-262.74 782.16,-273.1 788.14,-269.45"/>
<text text-anchor="start" x="732.08" y="-305.92" font-family="Times,serif" font-size="14.00"> </text>
<text text-anchor="start" x="735.58" y="-305.92" font-family="Times,serif" font-size="14.00" fill="red">MSG</text>
<text text-anchor="start" x="765.92" y="-305.92" font-family="Times,serif" font-size="14.00">  /</text>
<text text-anchor="start" x="776.81" y="-305.92" font-family="Times,serif" font-size="14.00" fill="blue">_</text>
</g>
<!-- join&#45;&gt;end -->
<!-- join&#45;&gt;end -->
<g id="edge7" class="edge" data-name="join-&gt;end">

<path fill="none" stroke="black" d="M783.97,-242C827.35,-234.67 917.82,-214.94 980.12,-170.66 989.47,-164.02 997.84,-154.94 1004.79,-145.89"/>
<polygon fill="black" stroke="black" points="1007.61,-147.96 1010.63,-137.8 1001.94,-143.87 1007.61,-147.96"/>
<text text-anchor="start" x="844" y="-244.06" font-family="Times,serif" font-size="14.00">        </text>
<text text-anchor="start" x="872" y="-244.06" font-family="Times,serif" font-size="14.00" fill="red">ERR, BYE</text>
<text text-anchor="start" x="934.23" y="-244.06" font-family="Times,serif" font-size="14.00">  /</text>
<text text-anchor="start" x="945.12" y="-244.06" font-family="Times,serif" font-size="14.00" fill="blue">_</text>
<text text-anchor="start" x="952.12" y="-244.06" font-family="Times,serif" font-size="14.00">        </text>
<text text-anchor="start" x="882.12" y="-230.06" font-family="Times,serif" font-size="14.00" fill="red">_</text>
<text text-anchor="start" x="889.12" y="-230.06" font-family="Times,serif" font-size="14.00">  /</text>
<text text-anchor="start" x="900.01" y="-230.06" font-family="Times,serif" font-size="14.00" fill="blue">BYE</text>
<text text-anchor="start" x="928.01" y="-230.06" font-family="Times,serif" font-size="14.00">    </text>
</g>

</g>
</svg>